<?xml version="1.0" encoding="UTF-8"?><svg id="Layer_1" xmlns="http://www.w3.org/2000/svg" viewBox="0 0 593.16 286.28"><defs><style>.cls-1{fill:#0b2967;}</style></defs><path class="cls-1" d="m458.32,199.56c-1.42,2.76-5.62,7.73-12.9,7.73h-29.92c-7.23,0-11.51-5.02-12.8-7.66l-40.51-82.18c-3.98-7.74-12.32-10.23-19.29-10.23h-73.55c-6.78,0-10.73,4.34-10.73,10.72,0,6.79,4.41,10.72,10.84,10.72h50.6c21.55,0,39.38,13.01,39.38,39.31s-18.01,39.31-39.38,39.31h-65.03c-5.9,0-10.8-3.41-10.8-10.85v-14.16c0-2.41,1.62-3.58,3.6-3.58h57.84c6,0,10.8-3.6,10.8-10.72s-4.72-10.73-10.78-10.73h-54.4c-9.12.01-17.4-2.47-23.25-6.31-3,34.87-27.97,56.36-64.45,56.36h-81.36c-2,0-3.6-1.19-3.6-3.57v-71.47c0-2.37,1.58-3.56,3.54-3.57h28.64c7.63,0,11.03,4.89,11.03,10.67v35.78h.02c0,2.37,1.58,3.56,3.53,3.57,7.66,0,24.84,0,24.84,0,19.55,0,35.8-11.82,35.8-35.73s-16.19-35.74-35.8-35.74h-68.09c-1.94-.03-3.51-1.21-3.51-3.58v-14.19c0-8.02,5.68-10.82,10.91-10.82h74.42c20.95,0,39.9,7.74,51.05,22.02,6.06-14.53,19.6-22.02,36.62-22.02h106.58c13.1,0,27.92,4.49,35.63,19.58l34.49,72.24c.35.74,1.06,1.09,1.93,1.09.8,0,1.55-.3,1.91-1.05,0,0,42.65-89.61,42.9-90.12.22-.48,1.1-1.73,3.18-1.73h32.8c2,0,3.6,1.18,3.6,3.57,0,.68-.13,1.26-.35,1.75l-55.97,115.62Z"/></svg>